<svg xmlns="http://www.w3.org/2000/svg" xmlns:xlink="http://www.w3.org/1999/xlink" version="1.1" x="0px" y="0px" viewBox="0 0 100 125" style="enable-background:new 0 0 100 100;" xml:space="preserve"><g><path d="M85,50c0,19.33-15.67,35-35,35S15,69.33,15,50s15.67-35,35-35S85,30.67,85,50z M30,61l40,0L50,31L30,61z"/><path d="M50,87c-20.4,0-37-16.6-37-37c0-20.4,16.6-37,37-37c20.4,0,37,16.6,37,37C87,70.4,70.4,87,50,87z M50,17   c-18.2,0-33,14.8-33,33s14.8,33,33,33s33-14.8,33-33S68.2,17,50,17z M73.74,63H26.26L50,27.39L73.74,63z M33.74,59h32.53L50,34.61   L33.74,59z"/></g></svg>